<?xml version="1.0" encoding="UTF-8" standalone="no"?>
<svg
   xmlns:dc="http://purl.org/dc/elements/1.1/"
   xmlns:cc="http://creativecommons.org/ns#"
   xmlns:rdf="http://www.w3.org/1999/02/22-rdf-syntax-ns#"
   xmlns:svg="http://www.w3.org/2000/svg"
   xmlns="http://www.w3.org/2000/svg"
   version="1.1"
   id="svg2"
   viewBox="0 0 750.00001 750.00001"
   height="750"
   width="750">
  <defs
     id="defs4" />
  <metadata
     id="metadata7">
    <rdf:RDF>
      <cc:Work
         rdf:about="">
        <dc:format>image/svg+xml</dc:format>
        <dc:type
           rdf:resource="http://purl.org/dc/dcmitype/StillImage" />
        <dc:title></dc:title>
      </cc:Work>
    </rdf:RDF>
  </metadata>
  <g
     transform="translate(0,-302.36216)"
     id="layer1">
    <path
       transform="translate(0,302.36216)"
       id="path4176"
       d="m 50.385844,477.6651 c -0.126874,-0.12687 -0.23068,-47.3068 -0.23068,-104.84429 l 0,-104.61361 202.768166,0 202.76817,0 0,104.84429 0,104.84429 -202.53749,0 c -111.39562,0 -202.641292,-0.10381 -202.768166,-0.23068 z m 93.471746,-24.75202 c 0.54282,-0.54282 0.59619,-23.16756 0.057,-24.175 -0.34753,-0.64936 -0.92977,-0.66929 -19.55018,-0.66929 l -19.19198,0 0,-72.84593 0,-72.84594 -0.88757,-0.33746 c -1.22776,-0.46679 -24.557335,-0.44777 -25.432751,0.0207 -0.658927,0.35265 -0.669294,1.67669 -0.669294,85.47828 l 0,85.12009 0.778547,0.31293 c 1.260761,0.50677 64.387838,0.44994 64.896198,-0.0584 z m 38.08823,0.19896 1.08132,-0.21626 0,-85.38352 0,-85.38352 -0.77855,-0.20864 c -1.3195,-0.35361 -24.36518,-0.24498 -25.3235,0.11936 l -0.88757,0.33746 0,85.14082 0,85.14083 0.77854,0.31293 c 0.8739,0.35127 23.44498,0.4775 25.12976,0.14054 z m 73.7531,-0.47578 c 0.1804,-0.28546 0.32976,-1.14186 0.3319,-1.90311 0.004,-1.42175 0.67744,-7.03293 1.57807,-13.14879 0.28026,-1.90311 0.50599,-3.92733 0.50163,-4.49827 -0.004,-0.57093 0.22063,-2.5173 0.49998,-4.32526 0.47366,-3.06563 1.40364,-10.50973 1.70749,-13.66782 0.16199,-1.68358 0.78961,-6.68285 1.28149,-10.20761 0.19919,-1.42734 0.51351,-3.91869 0.6985,-5.53633 0.18499,-1.61765 0.56245,-4.80969 0.8388,-7.09343 0.27634,-2.28374 0.66391,-5.70934 0.86125,-7.61246 0.19734,-1.90311 0.51118,-4.20749 0.69741,-5.12083 0.18624,-0.91335 0.33862,-2.21566 0.33862,-2.89404 0,-0.67837 0.22823,-2.81171 0.50719,-4.74075 0.27896,-1.92904 0.74143,-5.37586 1.02771,-7.6596 0.28629,-2.28374 0.69603,-5.47578 0.91053,-7.09343 0.21449,-1.61764 0.51717,-4.18685 0.6726,-5.70934 0.33386,-3.27011 0.86819,-7.60894 1.55536,-12.62976 0.27349,-1.99827 0.58291,-4.41176 0.6876,-5.36332 0.31489,-2.86212 1.16717,-10.10505 1.73046,-14.70588 0.29125,-2.37889 0.67805,-5.72664 0.85956,-7.43945 0.18152,-1.7128 0.4835,-4.04844 0.67107,-5.19031 0.44681,-2.72 1.00982,-7.43445 1.41807,-11.87436 0.18053,-1.96343 0.40347,-3.69158 0.4954,-3.84032 0.0919,-0.14875 0.32665,-1.95388 0.5216,-4.0114 0.25673,-2.70955 0.24835,-3.86879 -0.0304,-4.20466 -0.30885,-0.37214 -2.85371,-0.46268 -12.88574,-0.45842 -6.87548,0.003 -12.67154,0.11969 -12.88013,0.25951 -0.54789,0.36726 -0.83535,1.7612 -1.40822,6.82861 -0.51438,4.54996 -1.04225,9.1128 -2.00156,17.30104 -0.28985,2.47405 -0.67858,5.97751 -0.86383,7.78547 -0.18525,1.80796 -0.49272,4.45502 -0.68327,5.88235 -0.65909,4.93711 -1.12296,8.83567 -1.39984,11.76471 -0.15291,1.61764 -0.44561,4.10899 -0.65043,5.53633 -0.20482,1.42734 -0.61746,4.77509 -0.91698,7.43945 -0.29953,2.66436 -0.77265,6.42259 -1.0514,8.35164 -0.27875,1.92904 -0.51062,4.26468 -0.51527,5.19031 -0.005,0.92563 -0.17048,2.38365 -0.3685,3.24005 -0.19802,0.8564 -0.50377,3.11419 -0.67943,5.0173 -0.17567,1.90312 -0.54213,5.32872 -0.81435,7.61246 -0.88058,7.38722 -1.5978,13.7616 -1.94664,17.30104 -0.18758,1.90311 -0.49537,4.11307 -0.68398,4.91101 -0.18861,0.79794 -0.34837,2.27718 -0.35501,3.2872 -0.007,1.01001 -0.23714,3.08207 -0.51222,4.60456 -0.27508,1.52249 -0.50321,3.48653 -0.50696,4.36453 -0.004,0.87801 -0.16921,2.4351 -0.36769,3.46021 -0.19848,1.02511 -0.49714,3.39519 -0.66368,5.26685 -0.16654,1.87166 -0.39601,3.49622 -0.50994,3.61015 -0.55216,0.55216 -0.9378,-0.85127 -1.26307,-4.59658 -0.19605,-2.25732 -0.43422,-4.23005 -0.52928,-4.38385 -0.095,-0.15381 -0.31015,-1.87617 -0.47799,-3.82747 -0.31323,-3.64142 -0.69784,-6.79907 -1.57584,-12.93752 -0.27592,-1.92905 -0.50548,-4.26469 -0.51013,-5.19032 -0.005,-0.92563 -0.1654,-2.36367 -0.35723,-3.19565 -0.19182,-0.83199 -0.50131,-3.08977 -0.68777,-5.0173 -0.18646,-1.92754 -0.56119,-5.37312 -0.83274,-7.65686 -0.6553,-5.51104 -1.46899,-12.72659 -1.8925,-16.78201 -0.1888,-1.80795 -0.49978,-4.45501 -0.69105,-5.88235 -0.87342,-6.51768 -1.1739,-9.02786 -1.40829,-11.7647 -0.13854,-1.61765 -0.43793,-4.34257 -0.66531,-6.05537 -0.7063,-5.32043 -1.40994,-11.01073 -1.54037,-12.45675 -0.20158,-2.23493 -0.91122,-8.09588 -1.31974,-10.89965 -0.20796,-1.42734 -0.50848,-3.99654 -0.66782,-5.70934 -0.15933,-1.7128 -0.5132,-4.9827 -0.78636,-7.26644 -0.27316,-2.28374 -0.74008,-6.41003 -1.0376,-9.16955 -0.29752,-2.75951 -0.54557,-5.0451 -0.55123,-5.07909 -0.006,-0.034 -0.25496,-0.30647 -0.55402,-0.60553 -0.47433,-0.47435 -2.14716,-0.54375 -13.10641,-0.54375 -9.63291,0 -12.64424,0.10087 -12.91245,0.43252 -0.34397,0.42535 -0.0164,6.38494 0.41361,7.52596 0.10759,0.28546 0.34859,2.07612 0.53554,3.97923 0.18695,1.90312 0.58391,5.40658 0.88213,7.78547 1.14904,9.16575 2.52156,20.68274 2.92638,24.55551 0.16841,1.61106 0.46401,3.86884 0.6569,5.0173 0.38443,2.28889 1.04824,7.63748 1.41865,11.43065 0.13009,1.33218 0.42646,3.82353 0.65859,5.53633 0.23212,1.71281 0.65183,4.9827 0.93267,7.26644 0.28083,2.28374 0.6787,5.32007 0.88414,6.7474 0.20543,1.42734 0.50477,3.84084 0.66518,5.36333 0.28418,2.69701 0.91344,8.01222 1.90487,16.08996 0.26862,2.18858 0.64425,5.45848 0.83473,7.26644 0.19049,1.80796 0.49905,4.22145 0.68569,5.36332 0.38867,2.37786 1.07489,7.9104 1.26607,10.20761 0.14023,1.68504 0.96882,8.28082 1.56486,12.45675 0.20373,1.42734 0.49643,3.84083 0.65045,5.36332 0.35882,3.5469 0.94317,8.11684 1.57264,12.29884 0.27339,1.81627 0.49706,3.99723 0.49706,4.84658 0,0.84935 0.15677,2.08822 0.34838,2.75306 0.19161,0.66483 0.45022,2.752 0.57469,4.63815 0.17662,2.6763 0.36771,3.57076 0.87021,4.07325 0.61634,0.61634 1.58409,0.63987 22.62142,0.54988 19.08973,-0.0817 22.02063,-0.16222 22.30553,-0.61305 z m 91.16905,-11.93771 0,-12.45675 -19.37717,-0.17301 -19.37716,-0.17301 -0.0889,-23.78893 -0.0889,-23.78892 15.76908,0 c 10.20831,0 16.00509,-0.12632 16.43837,-0.3582 0.64212,-0.34365 0.66929,-0.8494 0.66929,-12.45675 0,-6.6542 -0.0389,-12.13362 -0.0865,-12.17648 -0.0476,-0.0429 -7.40485,-0.15965 -16.34948,-0.25952 l -16.26298,-0.18158 0,-23.87543 0,-23.87544 19.46798,-0.0894 19.46798,-0.0894 -0.0908,-12.54037 -0.0908,-12.54037 -31.6609,-0.0984 c -17.4135,-0.0541 -32.16696,-0.008 -32.78547,0.10219 l -1.12457,0.20057 0,85.42607 c 0,81.06687 0.0309,85.4342 0.60554,85.58523 0.33304,0.0875 15.0865,0.13787 32.78547,0.11187 l 32.17993,-0.0473 0,-12.45675 z m 59.51557,12.30059 c 3.05232,-0.36089 6.6092,-0.98968 7.95847,-1.40688 4.56959,-1.41298 7.16779,-2.51286 10.03326,-4.24728 2.76557,-1.67398 6.02868,-4.84548 8.12218,-7.89416 1.16055,-1.69005 1.70304,-2.73848 3.11436,-6.01871 0.4901,-1.13909 1.322,-3.98791 1.97041,-6.7474 0.52135,-2.21871 0.61083,-4.37704 0.61689,-14.8789 0.006,-10.844 -0.0694,-12.60818 -0.64561,-15.0519 -1.33668,-5.66891 -3.39266,-11.06399 -5.40643,-14.18685 -0.36817,-0.57093 -0.77443,-1.27163 -0.90284,-1.55709 -0.65758,-1.46212 -4.78329,-6.45841 -7.87215,-9.53327 -3.25948,-3.2447 -10.13532,-8.80583 -10.88764,-8.80583 -0.18364,0 -0.38578,-0.11679 -0.44924,-0.25952 -0.0634,-0.14273 -1.49135,-1.17841 -3.17319,-2.30151 -6.15885,-4.1128 -13.89488,-11.2333 -16.73278,-15.4014 -0.72414,-1.06357 -1.43341,-1.98567 -1.57614,-2.04911 -0.14274,-0.0634 -0.25952,-0.3248 -0.25952,-0.58082 0,-0.25601 -0.19463,-0.67361 -0.43252,-0.928 -0.41247,-0.44107 -1.20122,-2.00393 -2.14904,-4.25819 -1.15844,-2.75521 -1.34526,-4.34579 -1.47368,-12.54701 -0.12578,-8.03318 -0.0977,-8.48776 0.65288,-10.55364 0.78596,-2.1634 3.50141,-5.44341 4.51045,-5.44819 0.24695,-10e-4 0.91613,-0.26679 1.48707,-0.59025 0.83686,-0.47413 1.98345,-0.59108 5.91567,-0.60341 3.08042,-0.01 5.05658,0.1265 5.36332,0.36953 0.26713,0.21164 0.87499,0.47887 1.35077,0.59383 1.17141,0.28304 3.33446,2.12175 4.29522,3.65119 1.13533,1.80738 1.93315,5.82526 1.93315,9.73545 0,2.76359 0.0999,3.41908 0.54733,3.59077 0.8743,0.33551 25.17994,0.2319 25.71945,-0.10963 0.40682,-0.25753 0.44969,-1.48278 0.25709,-7.34764 -0.24968,-7.604 -1.01363,-12.21103 -2.65892,-16.03512 -1.92256,-4.46854 -3.47076,-6.85105 -6.4882,-9.98466 -1.63485,-1.69776 -7.44575,-5.75928 -8.23993,-5.75928 -0.23661,0 -0.9489,-0.25991 -1.58284,-0.57758 -2.56889,-1.2873 -1.91893,-1.09265 -8.07301,-2.41759 -4.30163,-0.92611 -11.62889,-1.30913 -17.14706,-0.89633 -5.10812,0.38213 -8.6637,0.8772 -10.52626,1.46567 -5.95265,1.88072 -7.31557,2.47266 -10.74625,4.66724 -1.82525,1.1676 -5.30065,4.38619 -6.92046,6.40911 -0.81437,1.01702 -2.92987,4.41836 -2.92987,4.71069 0,0.11111 -0.21241,0.69268 -0.47203,1.29238 -2.6563,6.13578 -3.14044,9.5983 -3.15213,22.54364 -0.009,10.32542 0.19292,13.48934 1.07272,16.78201 0.76563,2.86536 1.62171,5.64605 1.9175,6.22837 0.45981,0.90522 1.672,3.76127 1.672,3.93942 0,0.31797 3.27996,5.6236 4.21342,6.81557 0.50941,0.6505 1.53471,1.96127 2.27843,2.91283 1.65968,2.12347 5.82684,6.19443 8.38705,8.19341 1.04671,0.81727 2.08489,1.64373 2.30706,1.83658 0.22217,0.19285 1.43995,1.05132 2.70618,1.90773 3.23097,2.18524 9.20586,6.44017 10.07159,7.17234 0.39873,0.33722 1.44462,1.20883 2.3242,1.93691 3.36803,2.78794 7.8674,7.64919 10.14408,10.95995 1.37419,1.99831 3.58876,6.29339 3.58876,6.9602 0,0.28262 0.141,0.66177 0.31335,0.84257 0.64253,0.67404 1.2071,5.3539 1.33367,11.05536 0.2309,10.40022 -1.19197,14.04474 -6.46017,16.54675 -1.40959,0.66944 -2.15263,0.75303 -6.60554,0.74305 -4.98787,-0.0112 -5.02892,-0.0177 -6.99773,-1.11537 -1.97597,-1.10166 -3.38289,-2.25926 -3.38289,-2.78342 0,-0.15225 -0.17836,-0.45518 -0.39636,-0.67317 -1.05639,-1.0564 -1.67977,-4.05921 -1.67977,-8.09148 0,-2.2279 -0.0945,-4.29703 -0.21003,-4.59806 -0.18632,-0.48554 -1.6658,-0.54733 -13.10642,-0.54733 -10.93354,0 -12.96074,0.0775 -13.31919,0.50945 -0.31415,0.37852 -0.37351,2.04595 -0.23098,6.48789 0.31748,9.89435 0.98428,12.9312 4.30949,19.62693 1.30836,2.63454 2.19288,3.84951 4.56405,6.26911 1.61765,1.65069 3.64187,3.45722 4.49827,4.01451 1.9885,1.294 5.95625,3.23052 6.61904,3.23052 0.27995,0 0.65691,0.14678 0.83771,0.32618 0.57289,0.56845 6.48637,1.89528 10.70934,2.40289 3.19331,0.38385 12.51443,0.41733 15.57094,0.0559 z"
       style="opacity:1;fill:#000000;fill-opacity:1;stroke:#000000;stroke-width:0.34602076;stroke-opacity:0" />
    <path
       transform="translate(0,302.36216)"
       id="path4178"
       d="m 51.279039,123.48835 0.0872,-85.211947 23.010381,-0.09556 c 14.896727,-0.06186 24.047464,0.03529 25.95155,0.275537 1.61765,0.204102 3.79758,0.448953 4.84429,0.544113 2.98085,0.270997 9.76022,2.167988 13.14879,3.679265 4.39203,1.958811 9.32089,6.075765 11.86849,9.913453 2.37911,3.583865 3.27377,5.712743 5.10762,12.15378 0.32709,1.148836 0.47755,6.376155 0.57387,19.937 0.12324,17.350999 0.0928,18.522899 -0.54372,20.934259 -0.75424,2.85733 -2.08874,5.67359 -3.66805,7.74084 -1.13125,1.48078 -4.01661,4.31355 -4.40346,4.32322 -0.12914,0.003 -0.44418,0.21524 -0.7001,0.47115 -0.89549,0.89551 -4.81865,3.01547 -6.85056,3.70185 -2.50073,0.84475 -3.61909,1.32679 -3.70982,1.599 -0.10769,0.32305 0.57162,0.70086 4.91213,2.73198 7.62385,3.56755 12.4812,8.84615 14.49654,15.75374 0.80827,2.77036 0.85032,36.28642 0.0488,38.92844 -0.28341,0.93422 -0.52026,2.08786 -0.52633,2.56364 -0.006,0.47578 -0.40901,1.95502 -0.89542,3.2872 -0.48641,1.33218 -0.9773,2.73356 -1.09088,3.11419 -0.26271,0.88037 -1.98065,3.74126 -3.32454,5.53633 -1.35522,1.81022 -5.67812,6.02908 -6.59655,6.43779 -0.39535,0.17594 -1.18595,0.62668 -1.75688,1.00165 -0.57093,0.37498 -1.34948,0.82482 -1.7301,0.99967 -5.25521,2.41406 -9.27466,3.64204 -14.01384,4.28139 -1.473,0.19872 -13.779622,0.40571 -28.460901,0.47967 l -25.865744,0.1303 0.0872,-85.21195 z m 46.280969,60.84271 c 5.738232,-1.0426 8.402602,-3.2297 9.885072,-8.11434 0.71405,-2.35275 0.71631,-29.27354 0.003,-32.01332 -0.9883,-3.79431 -3.21319,-6.17545 -7.1969,-7.7023 -1.884963,-0.72246 -19.08972,-1.14185 -20.298713,-0.49482 l -0.731329,0.39136 0,23.79405 c 0,18.04513 0.100323,23.89438 0.415225,24.20928 0.604077,0.60408 14.512979,0.54982 17.923875,-0.0699 z m 2.595152,-73.7002 c 3.23498,-1.34831 5.28375,-2.94092 6.27489,-4.87777 1.38966,-2.71562 1.51058,-4.22534 1.51058,-18.86077 0,-15.452532 -0.14599,-16.898142 -1.95253,-19.334724 -1.08398,-1.462019 -3.25706,-3.485474 -3.75681,-3.49814 -0.19031,-0.0048 -0.81315,-0.271421 -1.38408,-0.592438 -0.884247,-0.497178 -2.43796,-0.604294 -10.485254,-0.722872 -5.195955,-0.07656 -9.828308,-0.04355 -10.294119,0.07336 l -0.846929,0.212566 0,23.851645 c 0,22.341793 0.03833,23.875473 0.605536,24.228013 0.411796,0.25596 3.539311,0.33185 9.775086,0.23719 7.549212,-0.11459 9.414128,-0.24113 10.55363,-0.71606 z"
       style="opacity:1;fill:#000000;fill-opacity:1;stroke:#000000;stroke-width:0.34602076;stroke-opacity:0" />
    <path
       transform="translate(0,302.36216)"
       id="path4180"
       d="m 150.24098,123.48402 0.0872,-85.207617 13.84083,0 14.70599,-4.03e-4 0,146.202 42.214,0 0,24.092 -35.46739,0 -35.46782,0 z"
       style="opacity:1;fill:#000000;fill-opacity:1;stroke:#000000;stroke-width:0.34602076;stroke-opacity:0" />
    <path
       transform="translate(0,302.36216)"
       id="path4182"
       d="m 250.213,38.4 c 0,0 11.81933,-0.251589 24.85566,-0.206172 l 23.70242,0.08257 1.18828,8.824766 c 0.30482,2.70969 0.54265,4.571656 1.96661,15.396687 0.27538,2.093425 0.64665,5.051903 0.82504,6.574394 0.1784,1.522492 0.47815,3.702422 0.6661,4.844291 0.32386,1.967529 0.75831,5.295259 1.40044,10.726644 0.15749,1.33218 0.45328,3.51211 0.65731,4.84429 0.20403,1.33218 0.61036,4.251464 0.90296,6.487301 0.29261,2.235834 0.77107,5.895009 1.06326,8.131489 0.29218,2.23649 0.75768,5.4033 1.03443,7.03736 0.27675,1.63407 0.50699,3.58043 0.51164,4.32526 0.005,0.74483 0.1569,1.99708 0.33832,2.78278 0.18142,0.7857 0.48982,2.88777 0.68533,4.67128 0.19551,1.7835 0.58496,4.95554 0.86544,7.04896 0.28048,2.09343 0.65957,5.0519 0.84242,6.5744 0.39182,3.26242 0.95762,7.35167 1.48418,10.72664 0.20785,1.33217 0.43456,3.04499 0.50381,3.80623 0.0692,0.76124 0.35217,3.01902 0.62871,5.0173 0.27653,1.99827 0.74739,5.50173 1.04634,7.78547 0.29896,2.28374 0.7088,5.24221 0.91078,6.57439 0.20198,1.33218 0.49018,3.51211 0.64046,4.84429 0.41563,3.68457 1.04041,8.41364 1.41714,10.72665 0.32009,1.96519 0.58384,4.07612 1.36188,10.89965 0.18445,1.61765 0.47945,3.56402 0.65557,4.32526 0.17612,0.76124 0.42901,2.74654 0.56198,4.41176 l 0.24176,2.90606 -14.05476,0 -14.05477,0 -5.95527,-36.36 -24.93547,0 c -0.91844,1.30116 -0.74265,2.80885 -0.93822,4.12868 -0.21914,1.52249 -0.56669,3.62456 -0.77233,4.67128 -0.20564,1.04671 -0.48899,2.91522 -0.62966,4.15225 -0.24112,2.12044 -0.53499,3.93122 -1.43197,8.82353 -0.20936,1.14187 -0.50753,3.16609 -0.6626,4.49827 -0.37772,3.24477 -1.23234,8.89151 -1.51623,9.78599 l -28.69899,0.3 z m 33.78799,109.43898 c 0.49236,-0.31222 0.32571,-4.7725 -0.30558,-8.17849 -0.17637,-0.95156 -0.47786,-3.36506 -0.66999,-5.36333 -0.19213,-1.99827 -0.59037,-5.65744 -0.88498,-8.13148 -1.96445,-16.49673 -2.4323,-20.55556 -2.89171,-25.08651 -0.20261,-1.998269 -0.5172,-4.567473 -0.69908,-5.709342 -0.41268,-2.590796 -1.08885,-8.169989 -1.40487,-11.591695 -0.61055,-6.610886 -1.97326,-16.087288 -2.43743,-16.950127 -0.21476,-0.399225 -0.32137,-0.321886 -0.47699,0.346021 -0.23591,1.012558 -0.80256,5.808898 -1.20536,10.202722 -0.15702,1.712802 -0.45712,4.282007 -0.66688,5.709342 -0.52907,3.600069 -1.09528,8.251609 -1.45314,11.937716 -0.16628,1.712803 -0.46529,3.952914 -0.66448,4.978023 -0.19918,1.02511 -0.36215,2.55031 -0.36215,3.38934 0,0.83902 -0.22467,3.03663 -0.49927,4.88357 -0.48823,3.28388 -1.37302,10.46522 -1.75664,14.25772 -0.18149,1.79414 -0.36878,3.40031 -1.73502,14.87889 -0.3058,2.5692 -0.67494,5.68339 -0.82032,6.92042 -0.14537,1.23702 -0.13828,2.59948 0.0158,3.02768 l 0.28008,0.77854 9.09161,-0.005 c 5.00039,-0.003 9.29628,-0.13509 9.54643,-0.29372 l -10e-6,0 z"
       style="opacity:1;fill:#000000;fill-opacity:1;stroke:#000000;stroke-width:0.34602076;stroke-opacity:0" />
    <path
       transform="translate(0,302.36216)"
       id="path4184"
       d="m 363.52164,210.76441 c -6.99171,-0.82114 -14.67292,-2.41734 -18.40252,-6.09363 -0.53868,-0.53098 -1.20833,-0.82344 -1.33893,-0.82344 -0.1306,0 -1.40092,-1.1289 -2.82294,-2.50865 -7.02616,-5.06189 -8.10472,-11.86161 -9.25117,-19.13275 -0.4691,-3.03372 -0.53738,-10.50571 -0.53738,-58.80363 0,-48.778053 -0.20126,-57.448553 0.28027,-60.364134 0.39635,-2.938813 1.55392,-4.655329 2.12846,-6.076652 0.86245,-2.133604 2.67189,-5.679033 3.60391,-7.061552 2.30546,-3.419792 6.93343,-7.338126 10.76936,-9.118024 0.76125,-0.353223 1.82491,-0.866834 2.36369,-1.141359 0.53877,-0.274524 1.19526,-0.499135 1.45884,-0.499135 0.26359,0 0.99059,-0.220712 1.61556,-0.490471 5.11989,-2.209932 16.13297,-3.324596 26.25526,-2.65737 3.12229,0.205811 6.33866,0.531142 7.14748,0.722959 0.80883,0.191817 2.13236,0.513212 2.94118,0.714211 0.80882,0.200999 2.01557,0.500155 2.68166,0.664791 4.9858,1.232329 11.81511,5.094812 14.99355,8.479968 2.99113,3.185681 5.65258,7.922873 6.90424,12.289096 1.41986,4.952924 1.66161,6.991578 1.55926,13.148789 l -0.10065,6.055573 -27.56691,0 c -0.15244,-0.240128 -0.14657,-1.463146 -0.14948,-3.543059 -0.0109,-7.756556 -2.50639,-12.117623 -9.09536,-13.943523 -4.32163,-1.197583 -9.68808,-0.77295 -13.71424,1.08517 -1.61929,0.747318 -3.90729,3.072792 -4.73202,4.809509 -1.26841,2.671017 -1.31638,4.754865 -1.31638,57.177833 0,59.03022 -0.15422,55.91654 2.94118,59.38239 1.44611,1.61918 3.37333,2.78158 5.66219,3.41516 2.48717,0.68847 9.01967,0.76929 11.13218,0.13773 6.67273,-1.99489 8.97868,-5.34095 8.98947,-13.04426 0.003,-2.07991 0.13002,-3.97813 0.28246,-4.21826 0.21706,-0.34193 3.23585,-0.41696 13.92203,-0.34602 l 13.64511,0.0903 -2.3e-4,6.57466 c -2.3e-4,6.49155 -0.20956,8.31805 -1.44907,12.62976 -2.51036,8.73249 -8.84334,15.65775 -17.58207,19.22641 -0.57093,0.23316 -1.42733,0.59324 -1.90311,0.80018 -1.68936,0.7348 -7.49566,1.98558 -11.41869,2.45978 -2.99234,0.3617 -16.82072,0.36284 -19.89619,0.002 l 0,-9e-5 z"
       style="opacity:1;fill:#000000;fill-opacity:1;stroke:#000000;stroke-width:0.34602076;stroke-opacity:0" />
    <path
       transform="translate(0,302.36216)"
       id="path4186"
       d="m 430.21645,123.48402 0.0872,-85.207617 27.68166,0 0.0881,35.726643 c 0.0485,19.649654 0.17921,35.726644 0.29055,35.726644 0.41989,0 1.49899,-1.595 1.71301,-2.53196 0.12247,-0.53618 0.44061,-1.39258 0.70696,-1.90311 0.26636,-0.51054 0.48525,-1.19155 0.48642,-1.51337 10e-4,-0.32181 0.15784,-0.68135 0.34815,-0.79897 0.19032,-0.11761 0.34698,-0.47715 0.34816,-0.79896 0.001,-0.32182 0.22006,-1.00283 0.48642,-1.51337 0.26635,-0.51053 0.58879,-1.404077 0.71653,-1.985648 0.12773,-0.581571 0.37597,-1.146232 0.55164,-1.254803 0.17567,-0.10857 0.32036,-0.460702 0.32153,-0.782515 0.001,-0.321813 0.23474,-1.031114 0.51903,-1.576225 0.2843,-0.545111 0.5169,-1.250083 0.5169,-1.566606 0,-0.316522 0.21091,-0.882636 0.46868,-1.258024 0.25778,-0.375391 0.55364,-1.071803 0.65749,-1.547581 0.10384,-0.475779 0.52891,-1.721453 0.94459,-2.768166 0.41568,-1.046713 0.8344,-2.214533 0.93048,-2.595156 0.0961,-0.380623 0.38713,-1.159169 0.64678,-1.730104 0.25965,-0.570934 0.95993,-2.439446 1.55618,-4.152249 0.59625,-1.712803 1.20651,-3.352861 1.35615,-3.644574 0.14964,-0.291717 0.3817,-1.02955 0.5157,-1.639633 0.134,-0.610084 0.38736,-1.19807 0.56303,-1.306641 0.17567,-0.108571 0.3194,-0.437169 0.3194,-0.73022 0,-0.293052 0.24655,-1.101337 0.5479,-1.796188 0.30134,-0.694852 0.76847,-1.774705 1.03806,-2.399674 0.26959,-0.624968 0.49016,-1.407796 0.49016,-1.739617 0,-0.33182 0.20016,-0.910448 0.44479,-1.285838 0.24463,-0.375391 0.72409,-1.53893 1.06548,-2.585643 0.58157,-1.783147 0.84832,-2.519573 2.09942,-5.795847 0.27253,-0.713668 0.98937,-2.698962 1.59299,-4.411765 0.60362,-1.712803 1.2184,-3.425606 1.36619,-3.806228 0.85693,-2.207018 1.52001,-3.950071 1.90864,-5.017301 0.24256,-0.66609 0.67893,-1.83391 0.96972,-2.595156 0.29079,-0.761246 0.61552,-1.658268 0.72164,-1.993382 l 29.53601,-0.200077 c -0.41043,1.046713 -2.22644,6.596573 -2.89788,8.594843 -0.67143,1.99827 -1.44221,4.123878 -1.71285,4.723574 -0.27064,0.599696 -0.49207,1.330126 -0.49207,1.623178 0,0.293051 -0.15571,0.629055 -0.34602,0.746674 -0.19031,0.117619 -0.34602,0.42809 -0.34602,0.689936 0,0.261847 -0.17914,0.914422 -0.3981,1.450167 -0.45081,1.10307 -1.97232,5.325995 -3.21839,8.932561 -0.46027,1.33218 -1.17151,3.278547 -1.58055,4.325259 -0.40903,1.046713 -0.82389,2.214533 -0.92191,2.595156 -0.098,0.380623 -0.39631,1.182703 -0.66285,1.782398 -0.26655,0.599696 -0.48464,1.214696 -0.48464,1.366664 0,0.370364 -2.12217,6.238288 -3.1159,8.615644 -0.23865,0.570934 -0.55601,1.50519 -0.70524,2.076125 -0.14922,0.570934 -0.61174,1.894463 -1.02781,2.941176 -0.41607,1.046713 -0.84145,2.292388 -0.9453,2.768166 -0.10384,0.475779 -0.39971,1.17219 -0.65748,1.547581 -0.25778,0.375388 -0.46868,0.954018 -0.46868,1.285838 0,0.33182 -0.22483,1.114647 -0.49963,1.739616 -0.27479,0.624969 -0.98896,2.537692 -1.58705,4.250495 -0.59808,1.7128 -1.22965,3.38456 -1.40349,3.71503 -0.17383,0.33046 -0.31606,0.74852 -0.31606,0.92903 0,0.1805 -0.17914,0.76653 -0.3981,1.30227 -0.45081,1.10307 -1.97232,5.32599 -3.21839,8.93256 -0.46027,1.33218 -1.18042,3.27855 -1.60035,4.32526 -1.01513,2.53037 -0.93465,3.16881 -0.29325,4.60617 0.28424,0.63698 0.33118,2.79868 0.4292,3.1793 0.098,0.38062 0.51622,1.54844 0.92935,2.59515 0.41311,1.04672 0.87992,2.37025 1.03735,2.94118 0.15743,0.57094 0.62666,1.89446 1.04273,2.94118 0.41607,1.04671 0.83969,2.29239 0.94138,2.76816 0.10168,0.47578 0.29903,1.02076 0.43855,1.21108 0.13952,0.19031 0.59029,1.35813 1.00171,2.59515 0.41143,1.23703 0.88622,2.56056 1.05511,2.94118 6.02801,19.44899 14.60421,37.77974 20.42921,57.09342 0.56493,1.93249 1.43571,4.15059 1.75914,4.48097 0.17699,0.1808 0.32132,0.79879 0.32132,1.14135 0,0.59011 -0.78174,0.62284 -14.87889,0.62284 -12.84197,0 -14.87889,-0.0695 -14.87889,-0.50729 0,-0.27901 -0.21738,-1.20842 -0.48364,-1.83339 l -26.30146,-69.12939 c -0.11223,0 -0.20405,16.03806 -0.20405,35.64014 l -4.6e-4,35.82993 -14.01454,0 -14.01453,0 0.0877,-85.3974 z"
       style="opacity:1;fill:#000000;fill-opacity:1;stroke:#000000;stroke-width:0.34602076;stroke-opacity:0" />
    <path
       transform="translate(0,302.36216)"
       id="path4188"
       d="m 51.103066,623.48402 0.0872,-85.20782 42.560554,0 23.82918,115.2988 25.652,-115.2992 42.56034,4e-4 0.0872,85.20782 0.0868,85.20779 -28.7211,3.7e-4 -0.005,-55.27737 c -0.003,-33.35551 -0.13254,-55.478 -0.32615,-55.78412 -0.25687,-0.40614 -0.39382,-0.3154 -0.68674,0.45505 l -24.34685,110.60645 -28.70415,0 -24.014239,-113.8634 -0.117481,113.86339 -14.014285,0 -14.014715,0 0.08775,-85.20816 z"
       style="opacity:1;fill:#000000;fill-opacity:1;stroke:#000000;stroke-width:0.34602076;stroke-opacity:0" />
    <path
       transform="translate(0,302.36216)"
       id="path4190"
       d="m 195.99815,685.85426 c 0,0 0.47296,-3.87544 0.66067,-5.0173 0.46828,-2.84874 1.07026,-7.40924 1.41592,-10.72665 0.15863,-1.52249 0.45359,-3.46886 0.65545,-4.32526 0.20187,-0.8564 0.37084,-2.1665 0.37549,-2.91133 0.005,-0.74482 0.23475,-2.69119 0.51132,-4.32526 0.56623,-3.34538 1.22142,-8.09304 1.57993,-11.44853 0.13217,-1.23702 0.42343,-3.49481 0.64725,-5.0173 0.78949,-5.37036 1.12906,-7.83976 1.44115,-10.48035 0.17346,-1.46764 0.55101,-4.4591 0.83899,-6.64768 0.28799,-2.18858 0.68006,-5.38062 0.87127,-7.09342 0.19121,-1.71281 0.5032,-3.76705 0.69331,-4.56499 0.19011,-0.79794 0.34565,-2.03466 0.34565,-2.74826 0,-0.7136 0.226,-2.7078 0.50222,-4.43155 0.27622,-1.72375 0.74923,-5.00261 1.05114,-7.28634 0.3019,-2.28374 0.71519,-5.24222 0.91843,-6.5744 0.20323,-1.33218 0.49231,-3.58996 0.6424,-5.0173 0.15009,-1.42734 0.44085,-3.68512 0.64613,-5.0173 0.20529,-1.33218 0.60585,-4.2128 0.89014,-6.40138 0.28429,-2.18859 0.6883,-5.22492 0.8978,-6.74741 0.2095,-1.52249 0.52086,-3.93599 0.69191,-5.36332 0.17105,-1.42734 0.55232,-4.38581 0.84727,-6.5744 0.29494,-2.18858 0.68677,-5.30276 0.87072,-6.92041 0.18395,-1.61765 0.49027,-3.95329 0.6807,-5.19031 0.3551,-2.20084 0.41487,-4.62123 1.19634,-6.6504 17.17144,-0.55695 28.10312,-0.26865 47.7425,-0.19482 0.45003,2.89444 0.91632,5.86188 1.2242,8.74832 0.15965,1.52249 0.4634,3.89706 0.67499,5.27682 0.21159,1.37976 0.55687,3.63754 0.76729,5.0173 0.21043,1.37976 0.50859,3.67647 0.66259,5.10381 0.35031,3.24692 0.9638,7.83833 1.41015,10.55363 0.1877,1.14187 0.485,3.39965 0.66067,5.0173 0.29934,2.75656 0.63922,5.35517 1.9234,14.70588 0.28751,2.09343 0.6765,5.28547 0.86443,7.09343 0.18794,1.80796 0.49355,3.73863 0.67915,4.29039 0.18559,0.55175 0.33744,1.63492 0.33744,2.40704 0,0.77211 0.2222,2.88988 0.49379,4.70615 0.46536,3.11223 0.94954,6.61168 2.12057,15.32652 0.27491,2.04585 0.73187,5.3936 1.01547,7.43945 0.2836,2.04585 0.58954,4.42041 0.67987,5.27681 0.0903,0.85641 0.38924,3.19205 0.66425,5.19032 0.27501,1.99827 0.75779,5.57958 1.07284,7.95847 0.31505,2.3789 0.80637,6.03807 1.09183,8.13149 0.28545,2.09343 0.58896,4.42907 0.67447,5.19031 0.23834,2.12204 1.10646,8.69202 1.53165,11.5917 0.2093,1.42733 0.52401,3.96968 0.69936,5.64966 0.17534,1.67998 0.47763,3.62635 0.67176,4.32526 0.19412,0.69892 0.35382,1.8617 0.35487,2.58397 10e-4,0.72226 0.22849,2.82434 0.50539,4.67128 l 1.85332,14.2581 -28.485,0 -5.51521,-35.62709 c 0,0 -13.44298,-0.34319 -24.87379,-0.33591 l -6.25105,35.963 -28.23143,-0.0592 z m 53.05365,-41.6955 c -0.0343,-2.09343 -0.22063,-4.58478 -0.4141,-5.53634 -0.3674,-1.80703 -0.90316,-6.51295 -1.42857,-12.54802 -0.17005,-1.95332 -0.40041,-3.6991 -0.51191,-3.87951 -0.1115,-0.1804 -0.34981,-2.00784 -0.52959,-4.06096 -0.17978,-2.05313 -0.47908,-4.82293 -0.66512,-6.15511 -0.71463,-5.11746 -1.15917,-8.75931 -1.41494,-11.59169 -0.2468,-2.73325 -0.48942,-4.71345 -1.39905,-11.41869 -0.19363,-1.42733 -0.5072,-4.07439 -0.69683,-5.88235 -1.31322,-12.52049 -1.91471,-16.3638 -2.52933,-16.16152 -0.21055,0.0693 -0.47119,1.28156 -0.5792,2.69393 -0.18859,2.46617 -0.4401,4.48096 -1.5516,12.42953 -0.27943,1.99827 -0.51031,4.33391 -0.51306,5.19031 -0.003,0.8564 -0.15152,2.19135 -0.33059,2.96656 -0.17906,0.7752 -0.49797,3.03299 -0.70867,5.0173 -0.60135,5.66313 -1.83062,16.41136 -2.96518,25.92617 -0.28366,2.3789 -0.6439,5.64879 -0.80054,7.26644 -0.15663,1.61765 -0.45725,4.109 -0.66803,5.53633 -0.97693,6.61532 -1.58536,12.95122 -1.31208,13.66338 0.1793,0.46725 1.39469,0.52302 9.64294,0.44255 l 9.43779,-0.0921 -0.0623,-3.80622 z"
       style="opacity:1;fill:#000000;fill-opacity:1;stroke:#000000;stroke-width:0.34602076;stroke-opacity:0" />
    <path
       transform="translate(0,302.36216)"
       id="path4192"
       d="m 320.91345,636.09647 c 0,-56.00153 -0.0949,-72.69007 -0.41523,-73.01038 -0.30749,-0.30749 -3.62937,-0.41522 -12.80277,-0.41522 l -12.38754,0 0,-12.28521 0,-12.2852 39.53287,0.088 39.53322,0.088 0,24.56754 -25.26,0 -0.0872,72.92381 -0.0878,72.92419 -28.02607,0 4.7e-4,-72.59547 z"
       style="opacity:1;fill:#000000;fill-opacity:1;stroke:#000000;stroke-width:0.34602076;stroke-opacity:0" />
    <path
       transform="translate(0,302.36216)"
       id="path4194"
       d="m 414.85671,636.09647 c 0,-56.00153 -0.0949,-72.69007 -0.41523,-73.01038 -0.30749,-0.30749 -3.62937,-0.41522 -12.80277,-0.41522 l -12.38754,0 0,-12.28521 0,-12.2852 39.53287,0.088 39.53288,0.088 0.091,12.02422 c 0.05,6.61333 0.05,12.05828 0,12.0999 -0.05,0.0416 -5.77438,0.1584 -12.72074,0.25952 l -12.33018,0.18384 -0.47418,145.84806 -28.02607,0 0,-72.59547 z"
       style="opacity:1;fill:#000000;fill-opacity:1;stroke:#000000;stroke-width:0.34602076;stroke-opacity:0" />
    <path
       transform="translate(0,302.36216)"
       id="path4196"
       d="m 483.10861,623.48402 0.0872,-85.20762 35.29412,0 35.29411,0 0.0967,11.41869 c 0.0532,6.28027 0.0113,11.76903 -0.0931,12.19723 l -0.18975,0.77855 -20.85846,0 c -15.76189,0 -20.95992,0.10145 -21.27369,0.41522 -0.31484,0.31484 -0.41522,6.12571 -0.41522,24.03627 0,22.9993 0.0176,23.63047 0.66929,23.97924 0.43554,0.23309 6.65932,0.35819 17.82007,0.35819 l 17.15078,0 0,12.11073 0,12.11073 -16.93249,0 c -10.16443,0 -17.28727,0.13488 -17.82007,0.33745 l -0.88758,0.33746 0,23.65736 c 0,22.43784 0.0325,23.68673 0.62975,24.22727 0.56762,0.51369 2.67532,0.57871 21.36678,0.65916 l 20.73703,0.0893 0.091,11.85121 0.0913,11.85154 -70.94473,0 0.0869,-85.20794 z"
       style="opacity:1;fill:#000000;fill-opacity:1;stroke:#000000;stroke-width:0.34602076;stroke-opacity:0" />
    <path
       transform="translate(0,302.36216)"
       id="path4198"
       d="m 568.2053,623.48402 0.0872,-85.20762 23.1834,-0.0956 c 15.42856,-0.0636 24.16721,0.032 26.12456,0.28583 1.61765,0.20975 4.03114,0.52286 5.36332,0.69579 2.7439,0.35618 5.76165,1.04685 7.20246,1.64841 0.53575,0.22369 1.17359,0.4067 1.41743,0.4067 0.84719,0 6.07207,2.6086 8.64336,4.31532 2.04438,1.35699 5.78753,5.17443 7.30438,7.44938 2.22976,3.34416 3.69872,7.1379 4.82333,12.45675 0.83222,3.93604 0.81141,43.47222 -0.0244,46.33637 -0.54947,1.88293 -1.30965,3.82366 -1.90941,4.8747 -0.16289,0.28547 -0.43924,0.84726 -0.61411,1.24842 -0.55009,1.26196 -4.14259,4.89453 -6.29055,6.36072 -2.46119,1.67999 -5.69512,3.46269 -6.28693,3.46566 -0.2336,0.001 -0.82438,0.21069 -1.31284,0.4656 -0.48847,0.2549 -1.30594,0.56833 -1.81661,0.6965 -0.51067,0.12817 -0.9285,0.37518 -0.9285,0.5489 0,0.38193 1.86017,1.74708 2.38059,1.74708 0.65735,0 6.18313,3.02823 8.07192,4.42356 2.02699,1.49743 5.68321,5.30085 6.18953,6.43875 0.17851,0.40116 0.71123,1.41564 1.18382,2.25439 0.4726,0.83876 0.85926,1.79293 0.85926,2.12038 0,0.32745 0.23357,1.15435 0.51904,1.83757 0.44763,1.07134 0.51903,5.31343 0.51903,30.83811 l -3.9e-4,29.59631 -27.68166,0 -0.0202,-27.42257 c -0.0111,-15.08218 -0.15869,-28.12284 -0.32743,-28.97924 -0.6177,-3.135 -0.8109,-3.6669 -1.97402,-5.43465 -1.31613,-2.0003 -3.33806,-3.39383 -6.32845,-4.36163 -1.66685,-0.53945 -3.04146,-0.60321 -11.07266,-0.51362 l -9.16955,0.10229 -0.0882,33.3045 -0.0886,33.30492 -28.02561,0 0.0876,-85.20803 z m 50.1695,-7.29682 c 2.32165,-1.1313 4.38924,-3.01843 5.17946,-4.72741 1.4468,-3.12891 1.48564,-3.68978 1.48564,-21.45328 0,-17.44126 -0.008,-17.56707 -1.30913,-21.28028 -0.37556,-1.07158 -3.87223,-4.66963 -4.54173,-4.67341 -0.20763,-10e-4 -0.84464,-0.26769 -1.41558,-0.59226 -0.89425,-0.50838 -2.39458,-0.60787 -10.8301,-0.7182 -7.28824,-0.0953 -9.92043,-0.0215 -10.29412,0.2886 -0.43076,0.3575 -0.50207,4.18513 -0.50207,26.94871 0,20.75938 0.0941,26.62812 0.43252,26.9737 0.33614,0.34325 2.59155,0.41489 10.12111,0.32148 l 9.68858,-0.12019 z"
       style="opacity:1;fill:#000000;fill-opacity:1;stroke:#000000;stroke-width:0.34602076;stroke-opacity:0" />
    <path
       transform="translate(0,302.36216)"
       id="path4218"
       d="m 392.69298,453.1159 c -3.50269,-0.31892 -8.64606,-1.3186 -11.49441,-2.23408 -10.93663,-3.5151 -18.12425,-11.37866 -20.85206,-22.81303 -0.61191,-2.56503 -1.45941,-15.27854 -1.11017,-16.65416 0.13675,-0.53868 0.5504,-0.99577 1.01341,-1.11984 0.43028,-0.11529 6.16347,-0.21176 12.74041,-0.21436 9.0457,-0.004 12.09331,0.10062 12.51331,0.42781 0.44877,0.34961 0.579,1.32963 0.6793,5.1121 0.11333,4.27378 0.20715,4.84934 1.08189,6.63723 1.0406,2.12693 2.54927,3.64134 4.8324,4.8508 1.3211,0.69984 1.94129,0.77316 6.47827,0.76593 4.30933,-0.007 5.23702,-0.10805 6.57439,-0.71708 3.16087,-1.43942 5.06303,-3.7053 5.91575,-7.04691 0.95439,-3.74006 0.4731,-18.34444 -0.68177,-20.68767 -0.16064,-0.32593 -0.87525,-1.83828 -1.58802,-3.36077 -1.806,-3.85761 -3.86422,-6.63463 -8.30085,-11.19981 -3.57403,-3.67758 -9.43079,-8.40548 -15.06829,-12.16396 -13.38441,-8.92329 -20.87767,-18.52574 -24.66294,-31.60499 l -1.11561,-3.85477 0,-13.66782 c 0,-15.3225 0.0964,-16.14903 2.60858,-22.36205 1.98381,-4.90631 4.59404,-8.34886 9.15613,-12.07573 3.63468,-2.96925 10.57802,-5.64715 17.14985,-6.61435 5.42949,-0.79907 16.23715,-0.78974 20.73942,0.0179 6.89067,1.23609 11.06419,2.71129 14.96977,5.29131 4.96925,3.28268 8.18014,7.00369 10.58624,12.26814 2.46458,5.39236 3.20568,9.53928 3.28214,18.36551 l 0.0546,6.30169 -1.38409,0.24889 c -2.23137,0.40127 -23.65151,0.34038 -24.41721,-0.0694 -0.58663,-0.31396 -0.67003,-0.752 -0.6753,-3.54671 -0.014,-7.43442 -1.94757,-11.42672 -6.53277,-13.48849 -1.36346,-0.61308 -2.28998,-0.717 -6.437,-0.72194 -4.61101,-0.005 -4.94033,0.041 -6.83872,0.96608 -2.1789,1.06174 -3.63518,2.64535 -4.84677,5.27053 -0.7312,1.58433 -0.77126,2.11137 -0.77126,10.14862 0,9.72298 0.15716,10.69514 2.5171,15.57093 2.02849,4.191 4.61937,7.58404 9.12461,11.94971 4.67609,4.53122 7.70124,6.90793 15.60194,12.25767 1.47189,0.99665 4.35251,3.26304 6.40138,5.03642 9.69047,8.38749 14.70587,16.46108 17.62292,28.36866 0.88755,3.62302 0.88903,26.11248 0.002,29.9308 -1.66416,7.16332 -3.98864,11.93535 -7.77366,15.95884 -2.9615,3.1481 -4.51894,4.30585 -8.30694,6.17513 -3.38656,1.67119 -7.35097,2.94825 -11.31388,3.64456 -3.02706,0.53187 -14.2123,0.94965 -17.47405,0.65266 l -1.1e-4,0 z"
       style="opacity:1;fill:#f8ef2a;fill-opacity:1;stroke:#000000;stroke-width:0.34602076;stroke-opacity:0" />
    <path
       transform="translate(0,302.36216)"
       id="path4220"
       d="m 284.00718,453.07382 -2.28441,-0.12082 -0.22245,-3.35906 c -0.12235,-1.84748 -0.22325,-40.29156 -0.22424,-85.43128 l -0.002,-82.07223 1.47059,-0.20816 c 0.80882,-0.11449 15.56228,-0.16263 32.78547,-0.10771 L 347.027,281.875 c 0.0604,8.36025 -0.0608,16.72051 0,25.08076 l -19.46836,0.0894 -19.46764,0.0894 0,47.92344 32.699,0 0,25.214 -32.87168,0.095 0.005,23.41839 c 0.003,12.88011 0.12806,23.61169 0.2781,23.84795 0.21075,0.33184 4.63756,0.44992 19.45838,0.51903 l 19.18556,0.0895 0,12.45675 0,12.45675 -30.27682,0.0197 c -16.65225,0.0108 -31.3048,-0.0347 -32.56123,-0.10115 l 0,2e-5 z"
       style="opacity:1;fill:#f8ef2a;fill-opacity:1;stroke:#000000;stroke-width:0.34602076;stroke-opacity:0" />
    <path
       transform="translate(0,302.36216)"
       id="path4222"
       d="m 212.00896,453.10704 c -1.39961,-0.25059 -1.73029,-0.90279 -2.03772,-4.01905 -0.15482,-1.56921 -0.44094,-4.02093 -0.63582,-5.44827 -0.46626,-3.41479 -3.92906,-31.54597 -5.06861,-41.17647 -0.28149,-2.37889 -0.66026,-5.33737 -0.84172,-6.57439 -0.18145,-1.23702 -0.65238,-5.0519 -1.0465,-8.47751 -0.39412,-3.4256 -0.85909,-7.31834 -1.03327,-8.65052 -0.17417,-1.33218 -0.56855,-4.60207 -0.87638,-7.26643 -0.30784,-2.66436 -0.94689,-7.88063 -1.42012,-11.5917 -0.47322,-3.71107 -0.99973,-7.91522 -1.17001,-9.34256 -1.06554,-8.93153 -1.40028,-11.68551 -1.87159,-15.39792 -1.07318,-8.4532 -1.91975,-15.38961 -2.61829,-21.45329 -0.39464,-3.42561 -0.86049,-7.24049 -1.03523,-8.47751 -0.17474,-1.23702 -0.56849,-4.50692 -0.87499,-7.26644 -0.3065,-2.75951 -0.78152,-6.51512 -1.05559,-8.34578 -0.27407,-1.83067 -0.49831,-4.27189 -0.49831,-5.42493 l 0,-2.09644 1.81661,-0.21954 c 0.99913,-0.12075 6.75502,-0.17088 12.79087,-0.11141 9.45765,0.0932 11.04996,0.18391 11.5221,0.65644 0.38038,0.3807 0.69553,1.91437 1.031,5.0173 1.12845,10.43785 2.27322,20.55315 2.58122,22.8081 0.18196,1.33218 0.58056,4.60208 0.88576,7.26644 0.3052,2.66436 0.76746,6.55709 1.02723,8.65052 0.25977,2.09342 0.71637,5.9083 1.01467,8.4775 0.29829,2.56921 1.0184,8.71973 1.60024,13.66782 1.47525,12.54591 1.93193,16.5132 2.92754,25.43253 0.47798,4.28201 1.0384,9.03114 1.2454,10.55363 0.20699,1.5225 0.50174,4.0917 0.65499,5.70935 0.27133,2.86392 1.56669,13.77742 2.58744,21.7993 0.27849,2.18859 0.60365,4.89898 0.72259,6.02311 0.11894,1.12413 0.29651,2.25302 0.3946,2.50865 0.34389,0.89615 0.75559,0.4512 0.93064,-1.0058 0.62409,-5.19442 2.22191,-19.00031 2.43284,-21.02077 0.0894,-0.8564 0.40501,-3.50346 0.70134,-5.88235 0.29634,-2.37889 1.01586,-8.52941 1.59892,-13.66782 0.58308,-5.13841 1.28829,-11.21107 1.56715,-13.49481 0.27886,-2.28374 0.65874,-5.70934 0.84417,-7.61245 0.18544,-1.90312 0.48905,-4.55018 0.67471,-5.88236 0.18565,-1.33218 0.57416,-4.40744 0.86335,-6.83391 0.28919,-2.42647 0.75595,-6.3192 1.03726,-8.65052 0.2813,-2.33131 0.75336,-6.34083 1.04901,-8.91003 0.29566,-2.56921 0.76658,-6.53979 1.0465,-8.82353 0.27992,-2.28374 1.21056,-10.38062 2.06808,-17.99308 1.98554,-17.62615 2.07095,-18.11691 3.22959,-18.55742 0.54651,-0.20779 5.59846,-0.2992 12.94476,-0.23424 10.25345,0.0907 12.0973,0.18386 12.37643,0.62557 0.3419,0.54104 0.29135,1.27745 -0.55811,8.13149 -0.28304,2.28373 -0.82607,6.72145 -1.20673,9.86159 -0.38066,3.14014 -0.91086,7.5 -1.17822,9.68858 -0.43979,3.59998 -2.17232,18.04741 -2.94612,24.56747 -0.36536,3.07852 -1.91021,15.54763 -2.44321,19.72024 -0.20644,1.61602 -0.51032,4.10737 -0.67532,5.53633 -0.16499,1.42896 -0.63343,5.08946 -1.04097,8.13444 -0.40754,3.04498 -0.87275,6.782 -1.03382,8.3045 -0.57527,5.43802 -3.90514,32.75606 -5.73613,47.05882 -0.48726,3.80623 -1.02304,8.24394 -1.19062,9.86159 -0.16759,1.61765 -0.7014,5.95426 -1.18625,9.63691 -0.48485,3.68265 -0.88154,7.28383 -0.88154,8.00261 0,0.75305 -0.22519,1.49378 -0.53139,1.7479 -0.4149,0.34434 -5.13633,0.46132 -21.53979,0.53369 -11.55462,0.051 -21.42521,0.0181 -21.93464,-0.0732 z"
       style="opacity:1;fill:#f8ef2a;fill-opacity:1;stroke:#000000;stroke-width:0.34602076;stroke-opacity:0" />
    <path
       transform="translate(0,302.36216)"
       id="path4224"
       d="m 158.23622,453.01062 -2.07612,-0.20135 -0.0872,-85.10311 c -0.0606,-59.16629 0.0237,-85.21405 0.27666,-85.46712 0.41639,-0.41658 22.61229,-0.75067 25.09886,-0.37779 l 1.52829,0.22918 0,85.40065 0,85.40066 -1.29758,0.21447 c -1.5842,0.26185 -20.55487,0.1845 -23.44291,-0.0956 z"
       style="opacity:1;fill:#f8ef2a;fill-opacity:1;stroke:#000000;stroke-width:0.34602076;stroke-opacity:0" />
    <path
       transform="translate(0,302.36216)"
       id="path4226"
       d="m 81.073593,453.0219 -2.768166,-0.21263 0,-85.01735 c 0,-69.2867 0.08321,-85.10058 0.449726,-85.46713 0.352184,-0.35222 3.129033,-0.44977 12.802768,-0.44977 6.794173,0 12.625529,0.11189 12.958579,0.24865 0.574,0.23571 0.60554,4.0425 0.60554,73.0857 l 0,72.83705 19.17554,0.0977 c 10.54655,0.0537 19.3052,0.22745 19.46367,0.38604 0.37654,0.37684 0.37641,23.96013 -1.4e-4,24.3368 -0.33175,0.33184 -58.512412,0.47566 -62.687517,0.15495 z"
       style="opacity:1;fill:#f8ef2a;fill-opacity:1;stroke:#000000;stroke-width:0.34602076;stroke-opacity:0" />
    <path
       transform="translate(0,302.36216)"
       id="path4228"
       d="m 80.344981,184.5997 c -0.644471,-0.14557 -0.754118,-0.4922 -0.949483,-3.00172 -0.121479,-1.56043 -0.221805,-12.36516 -0.222945,-24.0105 -0.0016,-16.56055 0.09216,-21.23434 0.430452,-21.45329 0.686533,-0.44433 9.996213,-0.54142 15.427617,-0.1609 4.29682,0.30104 5.207718,0.47262 6.808328,1.28246 3.20827,1.62323 5.03182,4.13981 5.72778,7.90461 0.23773,1.28603 0.33111,7.17108 0.26051,16.41842 l -0.11005,14.41389 -0.90651,1.93303 c -1.5611,3.32889 -3.80738,5.06457 -7.917018,6.1174 -1.87127,0.4794 -16.894547,0.93021 -18.548681,0.5566 z"
       style="opacity:1;fill:#f8ef2a;fill-opacity:1;stroke:#000000;stroke-width:0.34602076;stroke-opacity:0" />
    <path
       transform="translate(0,302.36216)"
       id="path4230"
       d="m 80.168283,111.25659 c -0.379303,-0.11919 -0.62888,-0.75506 -0.775539,-1.97589 -0.118937,-0.99008 -0.217603,-11.801505 -0.219257,-24.025387 l -0.003,-22.225241 0.885904,-0.222348 c 0.487248,-0.122291 5.041746,-0.145578 10.121108,-0.05175 11.082051,0.204716 11.515921,0.31248 14.624131,3.632371 1.28345,1.37086 2.1858,2.698642 2.4691,3.633218 0.62917,2.075513 0.64204,31.626287 0.0147,33.687007 -0.92313,3.03225 -3.3328,5.37324 -6.9077,6.71078 -1.812836,0.67827 -2.818601,0.76007 -10.824331,0.88036 -4.854189,0.0729 -9.077477,0.0535 -9.385086,-0.0431 z"
       style="opacity:1;fill:#f8ef2a;fill-opacity:1;stroke:#000000;stroke-width:0.34602076;stroke-opacity:0" />
    <path
       transform="translate(0,302.36216)"
       id="path4232"
       d="m 265.10415,147.60696 c -0.23391,-0.60956 -0.0702,-2.77447 0.71863,-9.50357 0.27888,-2.37889 0.98519,-8.45155 1.56959,-13.49481 1.03662,-8.94581 1.8912,-16.14773 2.95624,-24.913492 1.27825,-10.520677 2.59285,-21.670487 3.10058,-26.297578 0.64728,-5.898943 0.81457,-6.781688 1.20623,-6.364929 0.34611,0.368302 1.1565,5.43337 1.90415,11.901261 1.44578,12.507528 1.96806,16.839501 2.10677,17.474048 0.0832,0.380623 0.30872,2.249135 0.50117,4.15225 0.37644,3.72261 1.01372,9.32832 1.90784,16.78201 3.01601,25.14252 3.46547,29.71603 2.96916,30.21304 -0.28921,0.28962 -3.09475,0.4399 -9.5667,0.51245 -8.20023,0.0919 -9.18008,0.0438 -9.37366,-0.46068 z"
       style="opacity:1;fill:#f8ef2a;fill-opacity:1;stroke:#000000;stroke-width:0.34602076;stroke-opacity:0" />
    <path
       transform="translate(0,302.36216)"
       id="path4234"
       d="m 230.43452,647.91177 c -0.63907,-0.26221 -0.54484,-2.0758 0.59796,-11.50947 1.11162,-9.17627 1.229,-10.17668 2.78448,-23.73143 1.6064,-13.9985 2.0367,-17.67644 2.59087,-22.14533 1.48608,-11.98384 2.27556,-18.56776 2.46874,-20.58824 0.55551,-5.81011 1.19226,-3.57207 2.70727,9.51557 0.28639,2.47405 0.97908,8.31315 1.53931,12.97578 0.56024,4.66263 1.49576,12.60381 2.07894,17.64706 0.58318,5.04325 1.21208,10.18166 1.39755,11.41869 0.18547,1.23702 0.42694,3.18339 0.53661,4.32526 0.38735,4.03333 0.88146,8.35058 1.40587,12.28373 0.2918,2.18858 0.48273,5.30277 0.42428,6.92042 l -0.10627,2.94117 -8.99654,0.0621 c -4.9481,0.0342 -9.19118,-0.0177 -9.42907,-0.11533 z"
       style="opacity:1;fill:#f8ef2a;fill-opacity:1;stroke:#000000;stroke-width:0.34602076;stroke-opacity:0" />
    <path
       transform="translate(0,302.36216)"
       id="path4236"
       d="m 596.89665,616.98818 c -0.56823,-0.34951 -0.60554,-2.01238 -0.60554,-26.98669 l 0,-26.61423 0.74734,-0.39997 c 0.53365,-0.2856 3.4276,-0.35656 10.12111,-0.24816 9.35559,0.15151 9.37759,0.15364 11.3469,1.09717 2.49558,1.19566 4.90847,3.82483 5.70937,6.22113 0.52379,1.56719 0.61033,3.81416 0.71499,18.56499 0.0806,11.35244 -0.006,17.50968 -0.26884,19.03115 -0.71444,4.14234 -2.50207,6.56532 -6.29962,8.5386 l -1.82903,0.9504 -9.51557,0.10904 c -6.37362,0.073 -9.71552,-0.0139 -10.12111,-0.26343 z"
       style="opacity:1;fill:#f8ef2a;fill-opacity:1;stroke:#000000;stroke-width:0.34602076;stroke-opacity:0" />
    <path
       transform="translate(0,302.36216)"
       id="path4248"
       d="m 49.814523,477.78761 c -0.459001,-0.459 -0.383282,-208.93244 0.07615,-209.65602 0.304954,-0.48028 41.270035,-0.57718 203.237827,-0.48077 l 202.85589,0.12076 0.12128,105.16827 0.12127,105.16827 -203.04595,0 c -111.67528,0 -203.190184,-0.14423 -203.366467,-0.32051 z m 93.699917,-25.27025 c 0.40532,-0.40553 0.4688,-23.3495 0.0657,-23.75257 -0.14779,-0.14779 -8.88364,-0.41008 -19.41301,-0.58288 l -19.1443,-0.31418 -0.24039,-72.83653 -0.24038,-72.83654 -12.740388,0 -12.740384,0 -0.313031,2.64423 c -0.172166,1.45433 -0.334426,39.78582 -0.360576,85.18109 -0.04506,78.22335 -0.0036,82.54862 0.793799,82.7618 1.389965,0.37162 63.95426,0.11447 64.33293,-0.26442 z m 39.15265,-84.98616 0,-85.57693 -12.46068,0 c -6.85338,0 -12.8029,0.13132 -13.22115,0.29183 -0.68949,0.26458 -0.76048,8.22685 -0.76048,85.29647 0,67.55388 0.12337,85.05443 0.60096,85.24715 0.33053,0.13337 6.28005,0.25957 13.22115,0.28044 l 12.6202,0.038 0,-85.57692 z m 70.7983,85.27778 2.18251,-0.29915 0.28954,-2.46528 c 0.49104,-4.18084 7.82874,-64.14479 10.86185,-88.76335 6.89395,-55.95544 9.16666,-75.36321 9.0361,-77.16347 l -0.13946,-1.92307 -12.62904,-0.12819 -12.62906,-0.1282 -0.42132,1.10817 c -0.23173,0.6095 -1.21564,7.91478 -2.18648,16.23397 -0.97083,8.31918 -2.93458,24.96954 -4.3639,37.00079 -2.26164,19.03733 -6.04319,51.38732 -7.47453,63.9423 -1.46746,12.87169 -2.42742,20.41701 -2.62239,20.61198 -0.80107,0.80107 -0.71207,1.46796 -6.72858,-50.41967 -2.25355,-19.43509 -4.95202,-42.47596 -5.9966,-51.20192 -1.04457,-8.72596 -2.43031,-20.49523 -3.07941,-26.15393 -0.79009,-6.88772 -1.38933,-10.42116 -1.8129,-10.68975 -0.34799,-0.22067 -6.21041,-0.40453 -13.0276,-0.40857 -10.36274,-0.006 -12.43856,0.1064 -12.66118,0.68655 -0.24237,0.6316 2.13,20.67641 11.09888,93.77724 8.36473,68.17681 9.37445,75.89541 9.97852,76.27876 0.71436,0.45335 39.08886,0.54835 42.32505,0.10479 z m 93.144,-11.90038 0,-12.19952 -1.5024,-0.30048 c -0.82632,-0.16526 -9.37878,-0.30048 -19.00547,-0.30048 -16.2201,0 -17.52789,-0.0617 -17.84164,-0.84135 -0.18622,-0.46274 -0.34169,-11.22596 -0.34549,-23.91827 l -0.007,-23.0765 32.88261,0 0,-25.214 -20.19455,-0.0239 -12.31108,-0.003 0.01,-48.07693 19.39775,0 19.39834,0 0,-24.75917 -65.62559,0 0.009,84.61494 c 0.005,46.53846 0.16022,84.99399 0.34549,85.45673 0.31612,0.78957 2.32029,0.84135 32.56348,0.84135 l 32.2266,0 0,-12.19952 z m 60.81731,11.71 c 15.25385,-1.6979 24.99595,-9.24349 29.16257,-22.5874 1.07953,-3.45728 1.12567,-4.21953 1.1205,-18.50962 l -0.005,-14.90385 -1.37322,-4.08653 c -3.70061,-11.0127 -10.63686,-20.15242 -21.00379,-27.6762 -14.43033,-10.47277 -17.72656,-13.27628 -22.14417,-18.83412 -3.59526,-4.52324 -6.10977,-9.64182 -6.68215,-13.60232 -0.56864,-3.93465 -0.58126,-15.02422 -0.0199,-17.44297 0.68343,-2.94448 2.74349,-5.46203 5.62179,-6.87025 2.37356,-1.16127 2.95898,-1.2465 7.26988,-1.05831 5.54143,0.24191 8.09695,1.30713 9.98674,4.16279 1.59866,2.41575 2.06644,4.18174 2.44861,9.24427 0.28241,3.74104 0.43126,4.24147 1.33357,4.48366 1.41185,0.37896 21.45722,0.3561 23.37097,-0.0266 l 1.56202,-0.3124 -0.2499,-7.98087 c -0.27575,-8.80609 -0.85702,-11.7151 -3.41994,-17.1155 -5.18303,-10.92132 -15.79964,-16.68865 -32.02632,-17.39787 -11.08484,-0.48449 -19.19369,0.92183 -26.72921,4.63565 -6.98118,3.44062 -12.52416,10.51808 -14.89014,19.01222 -0.63178,2.26819 -0.85457,5.82203 -1.04257,16.63053 l -0.23908,13.74592 1.28622,4.52331 c 2.64307,9.295 7.92308,17.92225 14.8327,24.23585 1.90562,1.74124 6.27645,5.15766 9.71296,7.59206 13.43809,9.51946 19.74693,15.87883 23.70745,23.89733 l 2.2559,4.56731 0,9.85577 c 0,9.62064 -0.0287,9.90691 -1.20193,11.99953 -0.76896,1.37153 -2.05426,2.67041 -3.56806,3.60577 -2.27941,1.40841 -2.57022,1.462 -7.9327,1.462 -5.35864,0 -5.64391,-0.0525 -7.63787,-1.40456 -3.26276,-2.21248 -4.56493,-4.89944 -4.77323,-9.84923 -0.0956,-2.27195 -0.27549,-4.6176 -0.39976,-5.21255 l -0.22592,-1.08173 -12.71432,0 c -12.20317,0 -12.7349,0.0385 -13.2266,0.95722 -0.6696,1.25117 0.2111,14.15979 1.23422,18.09011 2.67953,10.29347 10.77865,18.617 20.98243,21.56383 7.18146,2.07399 16.58313,2.69341 25.61758,1.68778 z"
       style="opacity:1;fill:#000000;fill-opacity:1;stroke:#000000;stroke-width:0.48076922;stroke-opacity:0" />
    <path
       transform="translate(0,302.36216)"
       id="path4252"
       d="m -0.41269882,375.22955 0,-375.12211495 375.63738882,0 375.63739,0 L 750.60304,374.97051 750.344,749.83358 374.96565,750.09262 -0.41269882,750.35166 Z M 79.198645,594.183 103.158,708.692 l 28.707,0 25.199,-114.509 c 0,0 0.0838,26.1598 0.12792,60.58246 l 0.0697,53.92654 28.85544,0 0,-85.10108 0,-85.53577 -21.52986,0 c -21.4693,0 -21.3552,0.22085 -21.3552,0.22085 L 117.58,653.575 c 0,0 -5.52091,-27.266 -11.91875,-58.58189 l -11.632427,-56.93796 -21.457001,0 -21.457001,0 0,85.53577 -0.09882,85.10108 28.029001,0 z m 148.173355,78.546 24.77797,0.58614 c 0.0427,0.1417 1.32259,8.14136 2.84431,17.77701 l 2.76672,17.59985 29.07482,0 c -3.4112,-24.20152 -5.92723,-43.33629 -8.51329,-62.94411 -4.2598,-32.30779 -9.12623,-69.14559 -10.8143,-81.86179 -1.68807,-12.7162 -3.069,-24.71301 -3.069,-25.45838 l -49.46646,-0.30344 c 0,0.57848 -3.93712,31.58896 -8.74886,67.71099 -4.81175,36.12203 -9.83845,74.15208 -11.17043,84.51126 l -2.42178,18.34547 28.4893,0 c 0,0 4.31685,-24.2079 6.251,-35.963 z m 121.57223,-36.77135 0,-73.16915 12.88189,0 12.88189,0 0,-12.36661 4e-4,-12.14589 -39.67623,0 -39.67623,0 -4e-4,12.14589 0,12.36661 12.36662,0 12.76683,0 0,73.16915 0,72.73435 28.45523,0 z m 94.12601,22.92977 c 0.47807,-32.03215 0.68336,-64.0642 0.68476,-96.09892 l 12.36641,0 12.36662,0 0,-12.36661 4e-4,-12.14589 -39.67623,0 -39.67623,0 -4e-4,12.14589 0,12.36661 12.36662,0 13.08383,0 0.1749,145.9035 28.17441,0 c 0,0 -0.0945,-33.05849 0.13491,-49.80458 z m 110.95372,37.87277 0,-12.16619 -21.12631,0 -21.62665,0 0,-24.41839 0,-24.21796 18.01972,0 17.51938,0 0,-12.36661 0,-12.36662 -17.51938,0 -17.91972,0 0,-24.21796 0,-24.21796 21.52665,0 21.12631,0 0,-12.36661 4e-4,-12.14589 -35.55403,0 -35.55402,0 -4e-4,85.31504 0,85.10096 71.10805,0 z m 42.25261,-21.12631 0,-33.49292 9.37685,0 c 10.19716,0 14.8243,1.43965 17.38839,5.4101 1.19458,1.84978 1.58065,8.31433 1.90792,31.94739 l 0.41028,29.19355 27.59688,0 0,-30.15637 c 0,-29.10846 -0.1064,-30.81098 -2.19535,-35.12615 -2.22346,-4.59306 -9.59393,-11.00007 -14.03583,-12.20107 -3.26482,-0.88276 -2.88226,-2.11879 1.05829,-3.4193 4.9911,-1.6472 11.05587,-7.08454 13.22225,-11.85431 1.67189,-3.68104 1.90815,-7.06335 1.92801,-27.60149 0.0203,-20.94821 -0.19469,-23.98724 -2.04671,-28.93721 -4.11906,-11.00916 -12.86576,-17.75689 -26.20245,-20.21416 -3.36856,-0.62065 -17.60073,-0.90594 -31.68906,-0.90594 l -24.99604,0 0,170.416 28.27657,0 z m -140.155,-302.46684 0,-105.11624 -202.85772,0 -202.857728,0 -0.676177,15.62212 c -0.872146,20.14973 -0.884108,179.95203 -0.01409,188.27589 l 0.66208,6.33448 202.871825,0 202.87181,0 z M 395.40082,208.43832 c 7.50476,-2.9199 13.7645,-8.3779 17.15799,-14.96043 2.25597,-4.37602 2.8061,-7.03841 3.17031,-15.3427 l 0.0419,-9.06319 -27.51749,-0.18723 -0.45265,6.85693 c -0.28042,4.24781 -0.30947,6.32182 -6.44409,9.43696 -6.88447,3.49591 -16.69787,1.39669 -20.20244,-3.86457 -2.78289,-4.17784 -1.73393,-46.7197 -1.73393,-46.7197 0,0 -1.32643,-66.016038 1.82164,-69.665861 4.55372,-5.279518 18.71724,-7.536003 24.04824,-0.560705 2.35749,3.084638 2.43747,4.842027 2.64221,8.432195 l 0.32102,5.268981 27.67658,0 0,-7.205003 c 0,-21.764306 -11.67103,-33.076754 -36.38786,-35.269896 -8.90431,-0.790086 -21.05876,0.772086 -28.93481,3.718895 -11.69239,6.164726 -15.05557,12.572549 -19.69782,23.142803 l 0,60.287251 c 0,68.37996 -0.0728,67.66807 7.83465,76.65136 8.1596,9.2698 17.16192,12.0968 36.99433,11.61734 11.26869,-0.27243 15.00507,-0.76146 19.66226,-2.57343 z m -281.93759,-1.70348 c 10.68221,-3.90981 17.49178,-10.1572 20.71991,-19.00933 2.22278,-6.09531 3.27907,-37.05779 1.53074,-44.87016 -1.49025,-6.65913 -5.90129,-12.08712 -13.14452,-16.17494 l -5.58344,-3.1511 4.93724,-2.29252 c 7.02973,-3.26413 12.18365,-9.36384 13.72267,-16.2409 1.50105,-6.707373 0.81871,-38.520856 -0.94806,-44.202694 -2.77926,-8.937981 -9.35594,-14.511681 -19.36771,-19.031439 -4.15385,-1.875233 -7.88347,-2.978285 -35.102111,-3.311235 l -29.113078,-0.356123 0,85.703801 0,84.7718 28.597802,0 c 24.413337,0 29.352277,-0.22534 33.750557,-1.83516 z m 107.69262,-9.79209 0,-12.36661 -21.1263,0 -21.1263,0 0,-73.16915 0,-73.169153 -14.42772,0 -14.42772,0 0,85.535763 1.7e-4,84.7964 35.55402,0 35.55402,0 z M 258.63,193.8511 c 1.13113,-7.23995 3.541,-21.6411 3.541,-21.6411 l 24.735,0 c 0.44294,0.7085 1.84037,10.22774 3.27862,19.58 l 2.615,17.00409 14.15986,0.28672 14.15986,0.28672 0,-2.69654 c 0,-1.48308 -4.19349,-34.30635 -9.31886,-72.94058 -5.12538,-38.634237 -10.06516,-75.924978 -10.9773,-82.868318 l -1.65843,-12.624255 -24.57673,0 C 261.07082,38.237837 250.213,38.4 250.213,38.4 c 0,0 -21.68864,163.57545 -22.38872,167.58869 l -0.58857,2.72444 L 256.309,208.57 Z m 199.61207,-15.20063 c 0.0327,-16.8624 0.71194,-33.7418 0.50709,-35.94222 l -0.34977,-5.54914 4.8407,12.54628 c 2.02791,5.25599 7.66058,20.86813 12.73157,34.61311 l 9.21999,24.99087 14.83567,0 c 9.14155,0 14.83568,-0.39308 14.83568,-1.02414 0,-0.56328 -6.73698,-19.90272 -14.97107,-42.97653 -12.38657,-34.71002 -15.78583,-41.18012 -14.992,-43.35227 8.28301,-22.664687 29.96295,-82.465062 29.96295,-83.135799 L 484.76398,38.494645 472.2463,72.97511 c -9.91898,27.32223 -12.91532,37.91062 -13.4346,35.68496 -0.35804,-1.5346 -0.44003,-21.303577 -0.5071,-38.732777 l -0.12204,-31.947924 -27.54344,0 -0.76459,84.686211 c -0.41924,46.43526 -0.45654,84.92635 -0.0799,85.53576 0.43351,0.70142 5.76794,1.10803 14.53644,1.10803 l 13.85158,0 0.0594,-30.6589 3e-5,0 z"
       style="opacity:1;fill:#f8ef2a;fill-opacity:1;stroke:#000000;stroke-width:1.03055143;stroke-opacity:0" />
  </g>
</svg>
